%TF.GenerationSoftware,KiCad,Pcbnew,(5.1.10)-1*%
%TF.CreationDate,2021-10-28T23:59:16+02:00*%
%TF.ProjectId,Battery Charger Li-Po,42617474-6572-4792-9043-686172676572,rev?*%
%TF.SameCoordinates,Original*%
%TF.FileFunction,Legend,Top*%
%TF.FilePolarity,Positive*%
%FSLAX46Y46*%
G04 Gerber Fmt 4.6, Leading zero omitted, Abs format (unit mm)*
G04 Created by KiCad (PCBNEW (5.1.10)-1) date 2021-10-28 23:59:16*
%MOMM*%
%LPD*%
G01*
G04 APERTURE LIST*
%ADD10C,0.150000*%
%ADD11C,0.120000*%
G04 APERTURE END LIST*
D10*
X144637142Y-134826190D02*
X144732380Y-134540476D01*
X144827619Y-134445238D01*
X145018095Y-134350000D01*
X145303809Y-134350000D01*
X145494285Y-134445238D01*
X145589523Y-134540476D01*
X145684761Y-134730952D01*
X145684761Y-135492857D01*
X143684761Y-135492857D01*
X143684761Y-134826190D01*
X143780000Y-134635714D01*
X143875238Y-134540476D01*
X144065714Y-134445238D01*
X144256190Y-134445238D01*
X144446666Y-134540476D01*
X144541904Y-134635714D01*
X144637142Y-134826190D01*
X144637142Y-135492857D01*
X145113333Y-133588095D02*
X145113333Y-132635714D01*
X145684761Y-133778571D02*
X143684761Y-133111904D01*
X145684761Y-132445238D01*
X143684761Y-132064285D02*
X143684761Y-130921428D01*
X145684761Y-131492857D02*
X143684761Y-131492857D01*
D11*
%TO.C,J2*%
X134600000Y-130890000D02*
X134600000Y-136860000D01*
X134600000Y-136860000D02*
X142220000Y-136860000D01*
X142220000Y-136860000D02*
X142220000Y-130890000D01*
X142220000Y-130890000D02*
X134600000Y-130890000D01*
X137910000Y-130900000D02*
X137910000Y-131650000D01*
X137910000Y-131650000D02*
X138910000Y-131650000D01*
X138910000Y-131650000D02*
X138910000Y-130900000D01*
X138910000Y-130900000D02*
X137910000Y-130900000D01*
X134610000Y-130900000D02*
X134610000Y-131650000D01*
X134610000Y-131650000D02*
X136410000Y-131650000D01*
X136410000Y-131650000D02*
X136410000Y-130900000D01*
X136410000Y-130900000D02*
X134610000Y-130900000D01*
X140410000Y-130900000D02*
X140410000Y-131650000D01*
X140410000Y-131650000D02*
X142210000Y-131650000D01*
X142210000Y-131650000D02*
X142210000Y-130900000D01*
X142210000Y-130900000D02*
X140410000Y-130900000D01*
X134610000Y-133150000D02*
X135360000Y-133150000D01*
X135360000Y-133150000D02*
X135360000Y-136100000D01*
X135360000Y-136100000D02*
X138410000Y-136100000D01*
X142210000Y-133150000D02*
X141460000Y-133150000D01*
X141460000Y-133150000D02*
X141460000Y-136100000D01*
X141460000Y-136100000D02*
X138410000Y-136100000D01*
X135560000Y-130600000D02*
X134310000Y-130600000D01*
X134310000Y-130600000D02*
X134310000Y-131850000D01*
%TO.C,U1*%
X137530000Y-126070000D02*
X139330000Y-126070000D01*
X139330000Y-122850000D02*
X136880000Y-122850000D01*
%TO.C,R2*%
X135355000Y-124232936D02*
X135355000Y-124687064D01*
X133885000Y-124232936D02*
X133885000Y-124687064D01*
%TO.C,R1*%
X144045000Y-123417064D02*
X144045000Y-122962936D01*
X145515000Y-123417064D02*
X145515000Y-122962936D01*
%TO.C,J1*%
X142330000Y-120339215D02*
X141880000Y-120339215D01*
X142330000Y-118489215D02*
X142330000Y-120339215D01*
X134530000Y-115939215D02*
X134530000Y-116189215D01*
X142330000Y-115939215D02*
X142330000Y-116189215D01*
X134530000Y-118489215D02*
X134530000Y-120339215D01*
X134530000Y-120339215D02*
X134980000Y-120339215D01*
X140130000Y-120889215D02*
X139680000Y-120889215D01*
X140130000Y-120889215D02*
X140130000Y-120439215D01*
%TO.C,D1*%
X143820000Y-126000000D02*
X143820000Y-128685000D01*
X143820000Y-128685000D02*
X145740000Y-128685000D01*
X145740000Y-128685000D02*
X145740000Y-126000000D01*
%TO.C,C2*%
X138168748Y-127535000D02*
X138691252Y-127535000D01*
X138168748Y-129005000D02*
X138691252Y-129005000D01*
%TO.C,C1*%
X141505000Y-124721252D02*
X141505000Y-124198748D01*
X142975000Y-124721252D02*
X142975000Y-124198748D01*
%TO.C,REF\u002A\u002A*%
D10*
X133286666Y-127007880D02*
X132953333Y-126531690D01*
X132715238Y-127007880D02*
X132715238Y-126007880D01*
X133096190Y-126007880D01*
X133191428Y-126055500D01*
X133239047Y-126103119D01*
X133286666Y-126198357D01*
X133286666Y-126341214D01*
X133239047Y-126436452D01*
X133191428Y-126484071D01*
X133096190Y-126531690D01*
X132715238Y-126531690D01*
X133715238Y-126484071D02*
X134048571Y-126484071D01*
X134191428Y-127007880D02*
X133715238Y-127007880D01*
X133715238Y-126007880D01*
X134191428Y-126007880D01*
X134953333Y-126484071D02*
X134620000Y-126484071D01*
X134620000Y-127007880D02*
X134620000Y-126007880D01*
X135096190Y-126007880D01*
X135620000Y-126007880D02*
X135620000Y-126245976D01*
X135381904Y-126150738D02*
X135620000Y-126245976D01*
X135858095Y-126150738D01*
X135477142Y-126436452D02*
X135620000Y-126245976D01*
X135762857Y-126436452D01*
X136381904Y-126007880D02*
X136381904Y-126245976D01*
X136143809Y-126150738D02*
X136381904Y-126245976D01*
X136620000Y-126150738D01*
X136239047Y-126436452D02*
X136381904Y-126245976D01*
X136524761Y-126436452D01*
X143446666Y-116847880D02*
X143113333Y-116371690D01*
X142875238Y-116847880D02*
X142875238Y-115847880D01*
X143256190Y-115847880D01*
X143351428Y-115895500D01*
X143399047Y-115943119D01*
X143446666Y-116038357D01*
X143446666Y-116181214D01*
X143399047Y-116276452D01*
X143351428Y-116324071D01*
X143256190Y-116371690D01*
X142875238Y-116371690D01*
X143875238Y-116324071D02*
X144208571Y-116324071D01*
X144351428Y-116847880D02*
X143875238Y-116847880D01*
X143875238Y-115847880D01*
X144351428Y-115847880D01*
X145113333Y-116324071D02*
X144780000Y-116324071D01*
X144780000Y-116847880D02*
X144780000Y-115847880D01*
X145256190Y-115847880D01*
X145780000Y-115847880D02*
X145780000Y-116085976D01*
X145541904Y-115990738D02*
X145780000Y-116085976D01*
X146018095Y-115990738D01*
X145637142Y-116276452D02*
X145780000Y-116085976D01*
X145922857Y-116276452D01*
X146541904Y-115847880D02*
X146541904Y-116085976D01*
X146303809Y-115990738D02*
X146541904Y-116085976D01*
X146780000Y-115990738D01*
X146399047Y-116276452D02*
X146541904Y-116085976D01*
X146684761Y-116276452D01*
%TO.C,J2*%
X138076666Y-129252380D02*
X138076666Y-129966666D01*
X138029047Y-130109523D01*
X137933809Y-130204761D01*
X137790952Y-130252380D01*
X137695714Y-130252380D01*
X138505238Y-129347619D02*
X138552857Y-129300000D01*
X138648095Y-129252380D01*
X138886190Y-129252380D01*
X138981428Y-129300000D01*
X139029047Y-129347619D01*
X139076666Y-129442857D01*
X139076666Y-129538095D01*
X139029047Y-129680952D01*
X138457619Y-130252380D01*
X139076666Y-130252380D01*
%TO.C,U1*%
X137668095Y-121372380D02*
X137668095Y-122181904D01*
X137715714Y-122277142D01*
X137763333Y-122324761D01*
X137858571Y-122372380D01*
X138049047Y-122372380D01*
X138144285Y-122324761D01*
X138191904Y-122277142D01*
X138239523Y-122181904D01*
X138239523Y-121372380D01*
X139239523Y-122372380D02*
X138668095Y-122372380D01*
X138953809Y-122372380D02*
X138953809Y-121372380D01*
X138858571Y-121515238D01*
X138763333Y-121610476D01*
X138668095Y-121658095D01*
%TO.C,R2*%
X133477167Y-126630987D02*
X133000977Y-126964321D01*
X133477167Y-127202416D02*
X132477167Y-127202416D01*
X132477167Y-126821463D01*
X132524787Y-126726225D01*
X132572406Y-126678606D01*
X132667644Y-126630987D01*
X132810501Y-126630987D01*
X132905739Y-126678606D01*
X132953358Y-126726225D01*
X133000977Y-126821463D01*
X133000977Y-127202416D01*
X132572406Y-126250035D02*
X132524787Y-126202416D01*
X132477167Y-126107178D01*
X132477167Y-125869082D01*
X132524787Y-125773844D01*
X132572406Y-125726225D01*
X132667644Y-125678606D01*
X132762882Y-125678606D01*
X132905739Y-125726225D01*
X133477167Y-126297654D01*
X133477167Y-125678606D01*
%TO.C,R1*%
X145232380Y-120816666D02*
X144756190Y-121150000D01*
X145232380Y-121388095D02*
X144232380Y-121388095D01*
X144232380Y-121007142D01*
X144280000Y-120911904D01*
X144327619Y-120864285D01*
X144422857Y-120816666D01*
X144565714Y-120816666D01*
X144660952Y-120864285D01*
X144708571Y-120911904D01*
X144756190Y-121007142D01*
X144756190Y-121388095D01*
X145232380Y-119864285D02*
X145232380Y-120435714D01*
X145232380Y-120150000D02*
X144232380Y-120150000D01*
X144375238Y-120245238D01*
X144470476Y-120340476D01*
X144518095Y-120435714D01*
%TO.C,J1*%
X132802380Y-118443333D02*
X133516666Y-118443333D01*
X133659523Y-118490952D01*
X133754761Y-118586190D01*
X133802380Y-118729047D01*
X133802380Y-118824285D01*
X133802380Y-117443333D02*
X133802380Y-118014761D01*
X133802380Y-117729047D02*
X132802380Y-117729047D01*
X132945238Y-117824285D01*
X133040476Y-117919523D01*
X133088095Y-118014761D01*
%TO.C,D1*%
X143582380Y-127738095D02*
X142582380Y-127738095D01*
X142582380Y-127500000D01*
X142630000Y-127357142D01*
X142725238Y-127261904D01*
X142820476Y-127214285D01*
X143010952Y-127166666D01*
X143153809Y-127166666D01*
X143344285Y-127214285D01*
X143439523Y-127261904D01*
X143534761Y-127357142D01*
X143582380Y-127500000D01*
X143582380Y-127738095D01*
X143582380Y-126214285D02*
X143582380Y-126785714D01*
X143582380Y-126500000D02*
X142582380Y-126500000D01*
X142725238Y-126595238D01*
X142820476Y-126690476D01*
X142868095Y-126785714D01*
%TO.C,C2*%
X135403333Y-128627142D02*
X135355714Y-128674761D01*
X135212857Y-128722380D01*
X135117619Y-128722380D01*
X134974761Y-128674761D01*
X134879523Y-128579523D01*
X134831904Y-128484285D01*
X134784285Y-128293809D01*
X134784285Y-128150952D01*
X134831904Y-127960476D01*
X134879523Y-127865238D01*
X134974761Y-127770000D01*
X135117619Y-127722380D01*
X135212857Y-127722380D01*
X135355714Y-127770000D01*
X135403333Y-127817619D01*
X135784285Y-127817619D02*
X135831904Y-127770000D01*
X135927142Y-127722380D01*
X136165238Y-127722380D01*
X136260476Y-127770000D01*
X136308095Y-127817619D01*
X136355714Y-127912857D01*
X136355714Y-128008095D01*
X136308095Y-128150952D01*
X135736666Y-128722380D01*
X136355714Y-128722380D01*
%TO.C,C1*%
X142597142Y-122086666D02*
X142644761Y-122134285D01*
X142692380Y-122277142D01*
X142692380Y-122372380D01*
X142644761Y-122515238D01*
X142549523Y-122610476D01*
X142454285Y-122658095D01*
X142263809Y-122705714D01*
X142120952Y-122705714D01*
X141930476Y-122658095D01*
X141835238Y-122610476D01*
X141740000Y-122515238D01*
X141692380Y-122372380D01*
X141692380Y-122277142D01*
X141740000Y-122134285D01*
X141787619Y-122086666D01*
X142692380Y-121134285D02*
X142692380Y-121705714D01*
X142692380Y-121420000D02*
X141692380Y-121420000D01*
X141835238Y-121515238D01*
X141930476Y-121610476D01*
X141978095Y-121705714D01*
%TD*%
M02*
