%TF.GenerationSoftware,KiCad,Pcbnew,(5.1.10)-1*%
%TF.CreationDate,2021-10-28T23:59:16+02:00*%
%TF.ProjectId,Battery Charger Li-Po,42617474-6572-4792-9043-686172676572,rev?*%
%TF.SameCoordinates,Original*%
%TF.FileFunction,Copper,L1,Top*%
%TF.FilePolarity,Positive*%
%FSLAX46Y46*%
G04 Gerber Fmt 4.6, Leading zero omitted, Abs format (unit mm)*
G04 Created by KiCad (PCBNEW (5.1.10)-1) date 2021-10-28 23:59:16*
%MOMM*%
%LPD*%
G01*
G04 APERTURE LIST*
%TA.AperFunction,SMDPad,CuDef*%
%ADD10C,0.500000*%
%TD*%
%TA.AperFunction,ComponentPad*%
%ADD11O,1.700000X2.000000*%
%TD*%
%TA.AperFunction,SMDPad,CuDef*%
%ADD12R,1.060000X0.650000*%
%TD*%
%TA.AperFunction,SMDPad,CuDef*%
%ADD13R,1.200000X1.900000*%
%TD*%
%TA.AperFunction,ComponentPad*%
%ADD14O,1.200000X1.900000*%
%TD*%
%TA.AperFunction,SMDPad,CuDef*%
%ADD15R,1.500000X1.900000*%
%TD*%
%TA.AperFunction,ComponentPad*%
%ADD16C,1.450000*%
%TD*%
%TA.AperFunction,SMDPad,CuDef*%
%ADD17R,0.400000X1.350000*%
%TD*%
%TA.AperFunction,ViaPad*%
%ADD18C,0.800000*%
%TD*%
%TA.AperFunction,Conductor*%
%ADD19C,0.250000*%
%TD*%
%TA.AperFunction,Conductor*%
%ADD20C,0.254000*%
%TD*%
%TA.AperFunction,Conductor*%
%ADD21C,0.100000*%
%TD*%
G04 APERTURE END LIST*
D10*
%TO.P,REF\u002A\u002A,*%
%TO.N,*%
X134620000Y-128270000D03*
%TD*%
%TO.P,REF\u002A\u002A,*%
%TO.N,*%
X144780000Y-118110000D03*
%TD*%
D11*
%TO.P,J2,2*%
%TO.N,GND*%
X139660000Y-133350000D03*
%TO.P,J2,1*%
%TO.N,VCC*%
%TA.AperFunction,ComponentPad*%
G36*
G01*
X136310000Y-134100000D02*
X136310000Y-132600000D01*
G75*
G02*
X136560000Y-132350000I250000J0D01*
G01*
X137760000Y-132350000D01*
G75*
G02*
X138010000Y-132600000I0J-250000D01*
G01*
X138010000Y-134100000D01*
G75*
G02*
X137760000Y-134350000I-250000J0D01*
G01*
X136560000Y-134350000D01*
G75*
G02*
X136310000Y-134100000I0J250000D01*
G01*
G37*
%TD.AperFunction*%
%TD*%
D12*
%TO.P,U1,5*%
%TO.N,Net-(R2-Pad1)*%
X139530000Y-123510000D03*
%TO.P,U1,4*%
%TO.N,VBUS*%
X139530000Y-125410000D03*
%TO.P,U1,3*%
%TO.N,VCC*%
X137330000Y-125410000D03*
%TO.P,U1,2*%
%TO.N,GND*%
X137330000Y-124460000D03*
%TO.P,U1,1*%
%TO.N,Net-(R1-Pad2)*%
X137330000Y-123510000D03*
%TD*%
%TO.P,R2,2*%
%TO.N,GND*%
%TA.AperFunction,SMDPad,CuDef*%
G36*
G01*
X134169999Y-124860000D02*
X135070001Y-124860000D01*
G75*
G02*
X135320000Y-125109999I0J-249999D01*
G01*
X135320000Y-125635001D01*
G75*
G02*
X135070001Y-125885000I-249999J0D01*
G01*
X134169999Y-125885000D01*
G75*
G02*
X133920000Y-125635001I0J249999D01*
G01*
X133920000Y-125109999D01*
G75*
G02*
X134169999Y-124860000I249999J0D01*
G01*
G37*
%TD.AperFunction*%
%TO.P,R2,1*%
%TO.N,Net-(R2-Pad1)*%
%TA.AperFunction,SMDPad,CuDef*%
G36*
G01*
X134169999Y-123035000D02*
X135070001Y-123035000D01*
G75*
G02*
X135320000Y-123284999I0J-249999D01*
G01*
X135320000Y-123810001D01*
G75*
G02*
X135070001Y-124060000I-249999J0D01*
G01*
X134169999Y-124060000D01*
G75*
G02*
X133920000Y-123810001I0J249999D01*
G01*
X133920000Y-123284999D01*
G75*
G02*
X134169999Y-123035000I249999J0D01*
G01*
G37*
%TD.AperFunction*%
%TD*%
%TO.P,R1,2*%
%TO.N,Net-(R1-Pad2)*%
%TA.AperFunction,SMDPad,CuDef*%
G36*
G01*
X145230001Y-122790000D02*
X144329999Y-122790000D01*
G75*
G02*
X144080000Y-122540001I0J249999D01*
G01*
X144080000Y-122014999D01*
G75*
G02*
X144329999Y-121765000I249999J0D01*
G01*
X145230001Y-121765000D01*
G75*
G02*
X145480000Y-122014999I0J-249999D01*
G01*
X145480000Y-122540001D01*
G75*
G02*
X145230001Y-122790000I-249999J0D01*
G01*
G37*
%TD.AperFunction*%
%TO.P,R1,1*%
%TO.N,Net-(D1-Pad1)*%
%TA.AperFunction,SMDPad,CuDef*%
G36*
G01*
X145230001Y-124615000D02*
X144329999Y-124615000D01*
G75*
G02*
X144080000Y-124365001I0J249999D01*
G01*
X144080000Y-123839999D01*
G75*
G02*
X144329999Y-123590000I249999J0D01*
G01*
X145230001Y-123590000D01*
G75*
G02*
X145480000Y-123839999I0J-249999D01*
G01*
X145480000Y-124365001D01*
G75*
G02*
X145230001Y-124615000I-249999J0D01*
G01*
G37*
%TD.AperFunction*%
%TD*%
D13*
%TO.P,J1,6*%
%TO.N,Net-(J1-Pad6)*%
X141330000Y-117339215D03*
X135530000Y-117339215D03*
D14*
X134930000Y-117339215D03*
X141930000Y-117339215D03*
D15*
X139430000Y-117339215D03*
D16*
X135930000Y-120039215D03*
D17*
%TO.P,J1,3*%
%TO.N,Net-(J1-Pad3)*%
X138430000Y-120039215D03*
%TO.P,J1,4*%
%TO.N,Net-(J1-Pad4)*%
X137780000Y-120039215D03*
%TO.P,J1,5*%
%TO.N,GND*%
X137130000Y-120039215D03*
%TO.P,J1,1*%
%TO.N,VBUS*%
X139730000Y-120039215D03*
%TO.P,J1,2*%
%TO.N,Net-(J1-Pad2)*%
X139080000Y-120039215D03*
D16*
%TO.P,J1,6*%
%TO.N,Net-(J1-Pad6)*%
X140930000Y-120039215D03*
D15*
X137430000Y-117339215D03*
%TD*%
%TO.P,D1,2*%
%TO.N,VBUS*%
%TA.AperFunction,SMDPad,CuDef*%
G36*
G01*
X145236250Y-126550000D02*
X144323750Y-126550000D01*
G75*
G02*
X144080000Y-126306250I0J243750D01*
G01*
X144080000Y-125818750D01*
G75*
G02*
X144323750Y-125575000I243750J0D01*
G01*
X145236250Y-125575000D01*
G75*
G02*
X145480000Y-125818750I0J-243750D01*
G01*
X145480000Y-126306250D01*
G75*
G02*
X145236250Y-126550000I-243750J0D01*
G01*
G37*
%TD.AperFunction*%
%TO.P,D1,1*%
%TO.N,Net-(D1-Pad1)*%
%TA.AperFunction,SMDPad,CuDef*%
G36*
G01*
X145236250Y-128425000D02*
X144323750Y-128425000D01*
G75*
G02*
X144080000Y-128181250I0J243750D01*
G01*
X144080000Y-127693750D01*
G75*
G02*
X144323750Y-127450000I243750J0D01*
G01*
X145236250Y-127450000D01*
G75*
G02*
X145480000Y-127693750I0J-243750D01*
G01*
X145480000Y-128181250D01*
G75*
G02*
X145236250Y-128425000I-243750J0D01*
G01*
G37*
%TD.AperFunction*%
%TD*%
%TO.P,C2,2*%
%TO.N,GND*%
%TA.AperFunction,SMDPad,CuDef*%
G36*
G01*
X138880000Y-128745000D02*
X138880000Y-127795000D01*
G75*
G02*
X139130000Y-127545000I250000J0D01*
G01*
X139630000Y-127545000D01*
G75*
G02*
X139880000Y-127795000I0J-250000D01*
G01*
X139880000Y-128745000D01*
G75*
G02*
X139630000Y-128995000I-250000J0D01*
G01*
X139130000Y-128995000D01*
G75*
G02*
X138880000Y-128745000I0J250000D01*
G01*
G37*
%TD.AperFunction*%
%TO.P,C2,1*%
%TO.N,VCC*%
%TA.AperFunction,SMDPad,CuDef*%
G36*
G01*
X136980000Y-128745000D02*
X136980000Y-127795000D01*
G75*
G02*
X137230000Y-127545000I250000J0D01*
G01*
X137730000Y-127545000D01*
G75*
G02*
X137980000Y-127795000I0J-250000D01*
G01*
X137980000Y-128745000D01*
G75*
G02*
X137730000Y-128995000I-250000J0D01*
G01*
X137230000Y-128995000D01*
G75*
G02*
X136980000Y-128745000I0J250000D01*
G01*
G37*
%TD.AperFunction*%
%TD*%
%TO.P,C1,2*%
%TO.N,VBUS*%
%TA.AperFunction,SMDPad,CuDef*%
G36*
G01*
X142715000Y-124010000D02*
X141765000Y-124010000D01*
G75*
G02*
X141515000Y-123760000I0J250000D01*
G01*
X141515000Y-123260000D01*
G75*
G02*
X141765000Y-123010000I250000J0D01*
G01*
X142715000Y-123010000D01*
G75*
G02*
X142965000Y-123260000I0J-250000D01*
G01*
X142965000Y-123760000D01*
G75*
G02*
X142715000Y-124010000I-250000J0D01*
G01*
G37*
%TD.AperFunction*%
%TO.P,C1,1*%
%TO.N,GND*%
%TA.AperFunction,SMDPad,CuDef*%
G36*
G01*
X142715000Y-125910000D02*
X141765000Y-125910000D01*
G75*
G02*
X141515000Y-125660000I0J250000D01*
G01*
X141515000Y-125160000D01*
G75*
G02*
X141765000Y-124910000I250000J0D01*
G01*
X142715000Y-124910000D01*
G75*
G02*
X142965000Y-125160000I0J-250000D01*
G01*
X142965000Y-125660000D01*
G75*
G02*
X142715000Y-125910000I-250000J0D01*
G01*
G37*
%TD.AperFunction*%
%TD*%
D18*
%TO.N,GND*%
X134620000Y-121920000D03*
X140970000Y-125730000D03*
X140970000Y-128270000D03*
%TD*%
D19*
%TO.N,VBUS*%
X142240000Y-123522500D02*
X142240000Y-123510000D01*
X144607490Y-126235010D02*
X144780000Y-126062500D01*
X139730000Y-121000000D02*
X139730000Y-120039215D01*
X142240000Y-123510000D02*
X139730000Y-121000000D01*
X143754990Y-127087510D02*
X144780000Y-126062500D01*
X144088160Y-128750010D02*
X143754990Y-128416840D01*
X145471840Y-128750010D02*
X144088160Y-128750010D01*
X143754990Y-128416840D02*
X143754990Y-127087510D01*
X146705029Y-127516821D02*
X145471840Y-128750010D01*
X146705029Y-122676839D02*
X146705029Y-127516821D01*
X145468180Y-121439990D02*
X146705029Y-122676839D01*
X143810010Y-121439990D02*
X145468180Y-121439990D01*
X142240000Y-123010000D02*
X143810010Y-121439990D01*
X142240000Y-123510000D02*
X142240000Y-123010000D01*
X140668027Y-126548027D02*
X139530000Y-125410000D01*
X144294473Y-126548027D02*
X140668027Y-126548027D01*
X144780000Y-126062500D02*
X144294473Y-126548027D01*
%TO.N,GND*%
X139700000Y-127950000D02*
X139700000Y-128270000D01*
X135532500Y-124460000D02*
X134620000Y-125372500D01*
X137330000Y-124460000D02*
X135532500Y-124460000D01*
X137130000Y-120964215D02*
X137130000Y-120039215D01*
X135450784Y-121089216D02*
X137004999Y-121089216D01*
X137004999Y-121089216D02*
X137130000Y-120964215D01*
X133594990Y-122945010D02*
X135450784Y-121089216D01*
X133594990Y-124347490D02*
X133594990Y-122945010D01*
X134620000Y-125372500D02*
X133594990Y-124347490D01*
X137820002Y-124460000D02*
X137330000Y-124460000D01*
X142240000Y-125410000D02*
X141290000Y-125410000D01*
X141290000Y-125410000D02*
X140970000Y-125730000D01*
X140970000Y-125730000D02*
X140970000Y-125730000D01*
X139380000Y-133070000D02*
X139660000Y-133350000D01*
X139380000Y-128270000D02*
X139380000Y-133070000D01*
X139380000Y-128270000D02*
X140970000Y-128270000D01*
X138674999Y-127564999D02*
X139380000Y-128270000D01*
X138674999Y-125024999D02*
X138674999Y-127564999D01*
X138110000Y-124460000D02*
X138674999Y-125024999D01*
X137330000Y-124460000D02*
X138110000Y-124460000D01*
X140970000Y-128270000D02*
X140970000Y-128270000D01*
%TO.N,VCC*%
X137800000Y-128270000D02*
X137330000Y-127800000D01*
X137480000Y-125560000D02*
X137330000Y-125410000D01*
X137480000Y-128270000D02*
X137480000Y-125560000D01*
X137480000Y-133030000D02*
X137160000Y-133350000D01*
X137480000Y-128270000D02*
X137480000Y-133030000D01*
%TO.N,Net-(D1-Pad1)*%
X145480000Y-127937500D02*
X144780000Y-127937500D01*
X146255019Y-127162481D02*
X145480000Y-127937500D01*
X146255020Y-124877520D02*
X146255019Y-127162481D01*
X145480000Y-124102500D02*
X146255020Y-124877520D01*
X144780000Y-124102500D02*
X145480000Y-124102500D01*
%TO.N,Net-(J1-Pad6)*%
X135530000Y-117339215D02*
X141930000Y-117339215D01*
X135530000Y-119639215D02*
X135930000Y-120039215D01*
X135530000Y-117339215D02*
X135530000Y-119639215D01*
X141330000Y-119639215D02*
X140930000Y-120039215D01*
X141330000Y-117339215D02*
X141330000Y-119639215D01*
%TO.N,Net-(R1-Pad2)*%
X138915008Y-124335010D02*
X138089998Y-123510000D01*
X138089998Y-123510000D02*
X137330000Y-123510000D01*
X142953180Y-124335010D02*
X138915008Y-124335010D01*
X144780000Y-122508190D02*
X142953180Y-124335010D01*
X144780000Y-122277500D02*
X144780000Y-122508190D01*
%TO.N,Net-(R2-Pad1)*%
X138879999Y-122859999D02*
X139530000Y-123510000D01*
X135307501Y-122859999D02*
X138879999Y-122859999D01*
X134620000Y-123547500D02*
X135307501Y-122859999D01*
%TD*%
D20*
%TO.N,VBUS*%
X133712870Y-116747113D02*
X133695000Y-116928550D01*
X133695000Y-117749879D01*
X133712870Y-117931316D01*
X133783489Y-118164115D01*
X133898167Y-118378663D01*
X134052498Y-118566717D01*
X134240551Y-118721048D01*
X134455099Y-118835726D01*
X134687898Y-118906345D01*
X134770001Y-118914431D01*
X134770001Y-119327342D01*
X134724784Y-119395014D01*
X134622264Y-119642518D01*
X134570000Y-119905267D01*
X134570000Y-120173163D01*
X134622264Y-120435912D01*
X134724784Y-120683416D01*
X134747614Y-120717584D01*
X134580198Y-120885000D01*
X134518061Y-120885000D01*
X134318102Y-120924774D01*
X134129744Y-121002795D01*
X133960226Y-121116063D01*
X133816063Y-121260226D01*
X133702795Y-121429744D01*
X133624774Y-121618102D01*
X133585000Y-121818061D01*
X133585000Y-121880199D01*
X133083988Y-122381211D01*
X133054990Y-122405009D01*
X133031192Y-122434007D01*
X133031191Y-122434008D01*
X132960016Y-122520734D01*
X132889444Y-122652764D01*
X132861064Y-122746324D01*
X132845988Y-122796024D01*
X132834991Y-122907677D01*
X132831314Y-122945010D01*
X132834991Y-122982342D01*
X132834990Y-124310167D01*
X132831314Y-124347490D01*
X132834990Y-124384812D01*
X132834990Y-124384822D01*
X132845987Y-124496475D01*
X132877610Y-124600723D01*
X132889444Y-124639736D01*
X132960016Y-124771766D01*
X132993688Y-124812795D01*
X133054989Y-124887491D01*
X133083992Y-124911294D01*
X133281997Y-125109298D01*
X133281928Y-125109999D01*
X133281928Y-125635001D01*
X133298992Y-125808255D01*
X133349528Y-125974851D01*
X133431595Y-126128387D01*
X133542038Y-126262962D01*
X133676613Y-126373405D01*
X133830149Y-126455472D01*
X133996745Y-126506008D01*
X134169999Y-126523072D01*
X135070001Y-126523072D01*
X135243255Y-126506008D01*
X135409851Y-126455472D01*
X135563387Y-126373405D01*
X135697962Y-126262962D01*
X135808405Y-126128387D01*
X135890472Y-125974851D01*
X135941008Y-125808255D01*
X135958072Y-125635001D01*
X135958072Y-125220000D01*
X136161928Y-125220000D01*
X136161928Y-125735000D01*
X136174188Y-125859482D01*
X136210498Y-125979180D01*
X136269463Y-126089494D01*
X136348815Y-126186185D01*
X136445506Y-126265537D01*
X136555820Y-126324502D01*
X136675518Y-126360812D01*
X136720001Y-126365193D01*
X136720000Y-127070229D01*
X136602038Y-127167038D01*
X136491595Y-127301614D01*
X136409528Y-127455150D01*
X136358992Y-127621746D01*
X136341928Y-127795000D01*
X136341928Y-128745000D01*
X136358992Y-128918254D01*
X136409528Y-129084850D01*
X136491595Y-129238386D01*
X136602038Y-129372962D01*
X136720000Y-129469771D01*
X136720001Y-131711928D01*
X136560000Y-131711928D01*
X136386746Y-131728992D01*
X136220150Y-131779528D01*
X136066614Y-131861595D01*
X135932038Y-131972038D01*
X135821595Y-132106614D01*
X135739528Y-132260150D01*
X135688992Y-132426746D01*
X135671928Y-132600000D01*
X135671928Y-134100000D01*
X135688992Y-134273254D01*
X135739528Y-134439850D01*
X135821595Y-134593386D01*
X135932038Y-134727962D01*
X136066614Y-134838405D01*
X136220150Y-134920472D01*
X136386746Y-134971008D01*
X136560000Y-134988072D01*
X137760000Y-134988072D01*
X137933254Y-134971008D01*
X138099850Y-134920472D01*
X138253386Y-134838405D01*
X138387962Y-134727962D01*
X138498405Y-134593386D01*
X138552777Y-134491663D01*
X138604866Y-134555134D01*
X138830987Y-134740706D01*
X139088967Y-134878599D01*
X139368890Y-134963513D01*
X139660000Y-134992185D01*
X139951111Y-134963513D01*
X140231034Y-134878599D01*
X140489014Y-134740706D01*
X140715134Y-134555134D01*
X140900706Y-134329014D01*
X141038599Y-134071033D01*
X141123513Y-133791110D01*
X141145000Y-133572949D01*
X141145000Y-133127050D01*
X141123513Y-132908889D01*
X141038599Y-132628966D01*
X140900706Y-132370986D01*
X140715134Y-132144866D01*
X140489013Y-131959294D01*
X140231033Y-131821401D01*
X140140000Y-131793786D01*
X140140000Y-129469770D01*
X140257962Y-129372962D01*
X140368405Y-129238386D01*
X140417863Y-129145857D01*
X140479744Y-129187205D01*
X140668102Y-129265226D01*
X140868061Y-129305000D01*
X141071939Y-129305000D01*
X141271898Y-129265226D01*
X141460256Y-129187205D01*
X141629774Y-129073937D01*
X141773937Y-128929774D01*
X141887205Y-128760256D01*
X141965226Y-128571898D01*
X142005000Y-128371939D01*
X142005000Y-128168061D01*
X141965226Y-127968102D01*
X141887205Y-127779744D01*
X141773937Y-127610226D01*
X141629774Y-127466063D01*
X141460256Y-127352795D01*
X141271898Y-127274774D01*
X141071939Y-127235000D01*
X140868061Y-127235000D01*
X140668102Y-127274774D01*
X140479744Y-127352795D01*
X140417863Y-127394143D01*
X140368405Y-127301614D01*
X140257962Y-127167038D01*
X140123386Y-127056595D01*
X139969850Y-126974528D01*
X139803254Y-126923992D01*
X139630000Y-126906928D01*
X139434999Y-126906928D01*
X139434999Y-125263000D01*
X139657000Y-125263000D01*
X139657000Y-125283000D01*
X139677000Y-125283000D01*
X139677000Y-125537000D01*
X139657000Y-125537000D01*
X139657000Y-126211250D01*
X139815750Y-126370000D01*
X140060000Y-126373072D01*
X140149043Y-126364302D01*
X140166063Y-126389774D01*
X140310226Y-126533937D01*
X140479744Y-126647205D01*
X140668102Y-126725226D01*
X140868061Y-126765000D01*
X141071939Y-126765000D01*
X141271898Y-126725226D01*
X141460256Y-126647205D01*
X141628709Y-126534649D01*
X141765000Y-126548072D01*
X142715000Y-126548072D01*
X142888254Y-126531008D01*
X143054850Y-126480472D01*
X143208386Y-126398405D01*
X143342962Y-126287962D01*
X143445000Y-126163628D01*
X143445000Y-126189502D01*
X143603748Y-126189502D01*
X143445000Y-126348250D01*
X143441928Y-126550000D01*
X143454188Y-126674482D01*
X143490498Y-126794180D01*
X143549463Y-126904494D01*
X143628815Y-127001185D01*
X143706564Y-127064992D01*
X143700208Y-127070208D01*
X143590542Y-127203836D01*
X143509053Y-127356291D01*
X143458872Y-127521715D01*
X143441928Y-127693750D01*
X143441928Y-128181250D01*
X143458872Y-128353285D01*
X143509053Y-128518709D01*
X143590542Y-128671164D01*
X143700208Y-128804792D01*
X143833836Y-128914458D01*
X143986291Y-128995947D01*
X144151715Y-129046128D01*
X144323750Y-129063072D01*
X145236250Y-129063072D01*
X145408285Y-129046128D01*
X145573709Y-128995947D01*
X145726164Y-128914458D01*
X145859792Y-128804792D01*
X145969458Y-128671164D01*
X146050947Y-128518709D01*
X146084630Y-128407671D01*
X146660000Y-127832302D01*
X146660000Y-136500000D01*
X132740000Y-136500000D01*
X132740000Y-128182835D01*
X133735000Y-128182835D01*
X133735000Y-128357165D01*
X133769010Y-128528145D01*
X133835723Y-128689205D01*
X133932576Y-128834155D01*
X134055845Y-128957424D01*
X134200795Y-129054277D01*
X134361855Y-129120990D01*
X134532835Y-129155000D01*
X134707165Y-129155000D01*
X134878145Y-129120990D01*
X135039205Y-129054277D01*
X135184155Y-128957424D01*
X135307424Y-128834155D01*
X135404277Y-128689205D01*
X135470990Y-128528145D01*
X135505000Y-128357165D01*
X135505000Y-128182835D01*
X135470990Y-128011855D01*
X135404277Y-127850795D01*
X135307424Y-127705845D01*
X135184155Y-127582576D01*
X135039205Y-127485723D01*
X134878145Y-127419010D01*
X134707165Y-127385000D01*
X134532835Y-127385000D01*
X134361855Y-127419010D01*
X134200795Y-127485723D01*
X134055845Y-127582576D01*
X133932576Y-127705845D01*
X133835723Y-127850795D01*
X133769010Y-128011855D01*
X133735000Y-128182835D01*
X132740000Y-128182835D01*
X132740000Y-116550000D01*
X133772664Y-116550000D01*
X133712870Y-116747113D01*
%TA.AperFunction,Conductor*%
D21*
G36*
X133712870Y-116747113D02*
G01*
X133695000Y-116928550D01*
X133695000Y-117749879D01*
X133712870Y-117931316D01*
X133783489Y-118164115D01*
X133898167Y-118378663D01*
X134052498Y-118566717D01*
X134240551Y-118721048D01*
X134455099Y-118835726D01*
X134687898Y-118906345D01*
X134770001Y-118914431D01*
X134770001Y-119327342D01*
X134724784Y-119395014D01*
X134622264Y-119642518D01*
X134570000Y-119905267D01*
X134570000Y-120173163D01*
X134622264Y-120435912D01*
X134724784Y-120683416D01*
X134747614Y-120717584D01*
X134580198Y-120885000D01*
X134518061Y-120885000D01*
X134318102Y-120924774D01*
X134129744Y-121002795D01*
X133960226Y-121116063D01*
X133816063Y-121260226D01*
X133702795Y-121429744D01*
X133624774Y-121618102D01*
X133585000Y-121818061D01*
X133585000Y-121880199D01*
X133083988Y-122381211D01*
X133054990Y-122405009D01*
X133031192Y-122434007D01*
X133031191Y-122434008D01*
X132960016Y-122520734D01*
X132889444Y-122652764D01*
X132861064Y-122746324D01*
X132845988Y-122796024D01*
X132834991Y-122907677D01*
X132831314Y-122945010D01*
X132834991Y-122982342D01*
X132834990Y-124310167D01*
X132831314Y-124347490D01*
X132834990Y-124384812D01*
X132834990Y-124384822D01*
X132845987Y-124496475D01*
X132877610Y-124600723D01*
X132889444Y-124639736D01*
X132960016Y-124771766D01*
X132993688Y-124812795D01*
X133054989Y-124887491D01*
X133083992Y-124911294D01*
X133281997Y-125109298D01*
X133281928Y-125109999D01*
X133281928Y-125635001D01*
X133298992Y-125808255D01*
X133349528Y-125974851D01*
X133431595Y-126128387D01*
X133542038Y-126262962D01*
X133676613Y-126373405D01*
X133830149Y-126455472D01*
X133996745Y-126506008D01*
X134169999Y-126523072D01*
X135070001Y-126523072D01*
X135243255Y-126506008D01*
X135409851Y-126455472D01*
X135563387Y-126373405D01*
X135697962Y-126262962D01*
X135808405Y-126128387D01*
X135890472Y-125974851D01*
X135941008Y-125808255D01*
X135958072Y-125635001D01*
X135958072Y-125220000D01*
X136161928Y-125220000D01*
X136161928Y-125735000D01*
X136174188Y-125859482D01*
X136210498Y-125979180D01*
X136269463Y-126089494D01*
X136348815Y-126186185D01*
X136445506Y-126265537D01*
X136555820Y-126324502D01*
X136675518Y-126360812D01*
X136720001Y-126365193D01*
X136720000Y-127070229D01*
X136602038Y-127167038D01*
X136491595Y-127301614D01*
X136409528Y-127455150D01*
X136358992Y-127621746D01*
X136341928Y-127795000D01*
X136341928Y-128745000D01*
X136358992Y-128918254D01*
X136409528Y-129084850D01*
X136491595Y-129238386D01*
X136602038Y-129372962D01*
X136720000Y-129469771D01*
X136720001Y-131711928D01*
X136560000Y-131711928D01*
X136386746Y-131728992D01*
X136220150Y-131779528D01*
X136066614Y-131861595D01*
X135932038Y-131972038D01*
X135821595Y-132106614D01*
X135739528Y-132260150D01*
X135688992Y-132426746D01*
X135671928Y-132600000D01*
X135671928Y-134100000D01*
X135688992Y-134273254D01*
X135739528Y-134439850D01*
X135821595Y-134593386D01*
X135932038Y-134727962D01*
X136066614Y-134838405D01*
X136220150Y-134920472D01*
X136386746Y-134971008D01*
X136560000Y-134988072D01*
X137760000Y-134988072D01*
X137933254Y-134971008D01*
X138099850Y-134920472D01*
X138253386Y-134838405D01*
X138387962Y-134727962D01*
X138498405Y-134593386D01*
X138552777Y-134491663D01*
X138604866Y-134555134D01*
X138830987Y-134740706D01*
X139088967Y-134878599D01*
X139368890Y-134963513D01*
X139660000Y-134992185D01*
X139951111Y-134963513D01*
X140231034Y-134878599D01*
X140489014Y-134740706D01*
X140715134Y-134555134D01*
X140900706Y-134329014D01*
X141038599Y-134071033D01*
X141123513Y-133791110D01*
X141145000Y-133572949D01*
X141145000Y-133127050D01*
X141123513Y-132908889D01*
X141038599Y-132628966D01*
X140900706Y-132370986D01*
X140715134Y-132144866D01*
X140489013Y-131959294D01*
X140231033Y-131821401D01*
X140140000Y-131793786D01*
X140140000Y-129469770D01*
X140257962Y-129372962D01*
X140368405Y-129238386D01*
X140417863Y-129145857D01*
X140479744Y-129187205D01*
X140668102Y-129265226D01*
X140868061Y-129305000D01*
X141071939Y-129305000D01*
X141271898Y-129265226D01*
X141460256Y-129187205D01*
X141629774Y-129073937D01*
X141773937Y-128929774D01*
X141887205Y-128760256D01*
X141965226Y-128571898D01*
X142005000Y-128371939D01*
X142005000Y-128168061D01*
X141965226Y-127968102D01*
X141887205Y-127779744D01*
X141773937Y-127610226D01*
X141629774Y-127466063D01*
X141460256Y-127352795D01*
X141271898Y-127274774D01*
X141071939Y-127235000D01*
X140868061Y-127235000D01*
X140668102Y-127274774D01*
X140479744Y-127352795D01*
X140417863Y-127394143D01*
X140368405Y-127301614D01*
X140257962Y-127167038D01*
X140123386Y-127056595D01*
X139969850Y-126974528D01*
X139803254Y-126923992D01*
X139630000Y-126906928D01*
X139434999Y-126906928D01*
X139434999Y-125263000D01*
X139657000Y-125263000D01*
X139657000Y-125283000D01*
X139677000Y-125283000D01*
X139677000Y-125537000D01*
X139657000Y-125537000D01*
X139657000Y-126211250D01*
X139815750Y-126370000D01*
X140060000Y-126373072D01*
X140149043Y-126364302D01*
X140166063Y-126389774D01*
X140310226Y-126533937D01*
X140479744Y-126647205D01*
X140668102Y-126725226D01*
X140868061Y-126765000D01*
X141071939Y-126765000D01*
X141271898Y-126725226D01*
X141460256Y-126647205D01*
X141628709Y-126534649D01*
X141765000Y-126548072D01*
X142715000Y-126548072D01*
X142888254Y-126531008D01*
X143054850Y-126480472D01*
X143208386Y-126398405D01*
X143342962Y-126287962D01*
X143445000Y-126163628D01*
X143445000Y-126189502D01*
X143603748Y-126189502D01*
X143445000Y-126348250D01*
X143441928Y-126550000D01*
X143454188Y-126674482D01*
X143490498Y-126794180D01*
X143549463Y-126904494D01*
X143628815Y-127001185D01*
X143706564Y-127064992D01*
X143700208Y-127070208D01*
X143590542Y-127203836D01*
X143509053Y-127356291D01*
X143458872Y-127521715D01*
X143441928Y-127693750D01*
X143441928Y-128181250D01*
X143458872Y-128353285D01*
X143509053Y-128518709D01*
X143590542Y-128671164D01*
X143700208Y-128804792D01*
X143833836Y-128914458D01*
X143986291Y-128995947D01*
X144151715Y-129046128D01*
X144323750Y-129063072D01*
X145236250Y-129063072D01*
X145408285Y-129046128D01*
X145573709Y-128995947D01*
X145726164Y-128914458D01*
X145859792Y-128804792D01*
X145969458Y-128671164D01*
X146050947Y-128518709D01*
X146084630Y-128407671D01*
X146660000Y-127832302D01*
X146660000Y-136500000D01*
X132740000Y-136500000D01*
X132740000Y-128182835D01*
X133735000Y-128182835D01*
X133735000Y-128357165D01*
X133769010Y-128528145D01*
X133835723Y-128689205D01*
X133932576Y-128834155D01*
X134055845Y-128957424D01*
X134200795Y-129054277D01*
X134361855Y-129120990D01*
X134532835Y-129155000D01*
X134707165Y-129155000D01*
X134878145Y-129120990D01*
X135039205Y-129054277D01*
X135184155Y-128957424D01*
X135307424Y-128834155D01*
X135404277Y-128689205D01*
X135470990Y-128528145D01*
X135505000Y-128357165D01*
X135505000Y-128182835D01*
X135470990Y-128011855D01*
X135404277Y-127850795D01*
X135307424Y-127705845D01*
X135184155Y-127582576D01*
X135039205Y-127485723D01*
X134878145Y-127419010D01*
X134707165Y-127385000D01*
X134532835Y-127385000D01*
X134361855Y-127419010D01*
X134200795Y-127485723D01*
X134055845Y-127582576D01*
X133932576Y-127705845D01*
X133835723Y-127850795D01*
X133769010Y-128011855D01*
X133735000Y-128182835D01*
X132740000Y-128182835D01*
X132740000Y-116550000D01*
X133772664Y-116550000D01*
X133712870Y-116747113D01*
G37*
%TD.AperFunction*%
D20*
X144907000Y-125935500D02*
X144927000Y-125935500D01*
X144927000Y-126189500D01*
X144907000Y-126189500D01*
X144907000Y-126209500D01*
X144653000Y-126209500D01*
X144653000Y-126189500D01*
X144633000Y-126189500D01*
X144633000Y-125935500D01*
X144653000Y-125935500D01*
X144653000Y-125915500D01*
X144907000Y-125915500D01*
X144907000Y-125935500D01*
%TA.AperFunction,Conductor*%
D21*
G36*
X144907000Y-125935500D02*
G01*
X144927000Y-125935500D01*
X144927000Y-126189500D01*
X144907000Y-126189500D01*
X144907000Y-126209500D01*
X144653000Y-126209500D01*
X144653000Y-126189500D01*
X144633000Y-126189500D01*
X144633000Y-125935500D01*
X144653000Y-125935500D01*
X144653000Y-125915500D01*
X144907000Y-125915500D01*
X144907000Y-125935500D01*
G37*
%TD.AperFunction*%
D20*
X146660001Y-124207699D02*
X146093154Y-123640853D01*
X146050472Y-123500149D01*
X145968405Y-123346613D01*
X145857962Y-123212038D01*
X145831109Y-123190000D01*
X145857962Y-123167962D01*
X145968405Y-123033387D01*
X146050472Y-122879851D01*
X146101008Y-122713255D01*
X146118072Y-122540001D01*
X146118072Y-122014999D01*
X146101008Y-121841745D01*
X146050472Y-121675149D01*
X145968405Y-121521613D01*
X145857962Y-121387038D01*
X145723387Y-121276595D01*
X145569851Y-121194528D01*
X145403255Y-121143992D01*
X145230001Y-121126928D01*
X144329999Y-121126928D01*
X144156745Y-121143992D01*
X143990149Y-121194528D01*
X143836613Y-121276595D01*
X143702038Y-121387038D01*
X143591595Y-121521613D01*
X143509528Y-121675149D01*
X143458992Y-121841745D01*
X143441928Y-122014999D01*
X143441928Y-122540001D01*
X143447545Y-122597027D01*
X143416185Y-122558815D01*
X143319494Y-122479463D01*
X143209180Y-122420498D01*
X143089482Y-122384188D01*
X142965000Y-122371928D01*
X142525750Y-122375000D01*
X142367000Y-122533750D01*
X142367000Y-123383000D01*
X142387000Y-123383000D01*
X142387000Y-123575010D01*
X140698072Y-123575010D01*
X140698072Y-123185000D01*
X140685812Y-123060518D01*
X140670488Y-123010000D01*
X140876928Y-123010000D01*
X140880000Y-123224250D01*
X141038750Y-123383000D01*
X142113000Y-123383000D01*
X142113000Y-122533750D01*
X141954250Y-122375000D01*
X141515000Y-122371928D01*
X141390518Y-122384188D01*
X141270820Y-122420498D01*
X141160506Y-122479463D01*
X141063815Y-122558815D01*
X140984463Y-122655506D01*
X140925498Y-122765820D01*
X140889188Y-122885518D01*
X140876928Y-123010000D01*
X140670488Y-123010000D01*
X140649502Y-122940820D01*
X140590537Y-122830506D01*
X140511185Y-122733815D01*
X140414494Y-122654463D01*
X140304180Y-122595498D01*
X140184482Y-122559188D01*
X140060000Y-122546928D01*
X139641729Y-122546928D01*
X139443802Y-122349001D01*
X139420000Y-122319998D01*
X139304275Y-122225025D01*
X139172246Y-122154453D01*
X139028985Y-122110996D01*
X138917332Y-122099999D01*
X138917321Y-122099999D01*
X138879999Y-122096323D01*
X138842677Y-122099999D01*
X135639473Y-122099999D01*
X135655000Y-122021939D01*
X135655000Y-121959802D01*
X135765586Y-121849216D01*
X136967677Y-121849216D01*
X137004999Y-121852892D01*
X137042321Y-121849216D01*
X137042332Y-121849216D01*
X137153985Y-121838219D01*
X137297246Y-121794762D01*
X137429275Y-121724190D01*
X137545000Y-121629217D01*
X137568803Y-121600213D01*
X137640998Y-121528018D01*
X137670001Y-121504216D01*
X137764974Y-121388491D01*
X137784326Y-121352287D01*
X137980000Y-121352287D01*
X138104482Y-121340027D01*
X138105000Y-121339870D01*
X138105518Y-121340027D01*
X138230000Y-121352287D01*
X138630000Y-121352287D01*
X138754482Y-121340027D01*
X138755000Y-121339870D01*
X138755518Y-121340027D01*
X138880000Y-121352287D01*
X139280000Y-121352287D01*
X139404482Y-121340027D01*
X139407120Y-121339227D01*
X139498250Y-121349215D01*
X139566218Y-121281247D01*
X139634494Y-121244752D01*
X139731185Y-121165400D01*
X139803000Y-121077893D01*
X139803000Y-121190465D01*
X139961750Y-121349215D01*
X140064474Y-121337956D01*
X140183576Y-121299736D01*
X140284610Y-121243636D01*
X140285799Y-121244431D01*
X140533303Y-121346951D01*
X140796052Y-121399215D01*
X141063948Y-121399215D01*
X141326697Y-121346951D01*
X141574201Y-121244431D01*
X141796949Y-121095596D01*
X141986381Y-120906164D01*
X142135216Y-120683416D01*
X142237736Y-120435912D01*
X142290000Y-120173163D01*
X142290000Y-119905267D01*
X142237736Y-119642518D01*
X142135216Y-119395014D01*
X142090000Y-119327343D01*
X142090000Y-118914431D01*
X142172102Y-118906345D01*
X142404901Y-118835726D01*
X142619449Y-118721048D01*
X142807502Y-118566717D01*
X142961833Y-118378664D01*
X143076511Y-118164116D01*
X143119368Y-118022835D01*
X143895000Y-118022835D01*
X143895000Y-118197165D01*
X143929010Y-118368145D01*
X143995723Y-118529205D01*
X144092576Y-118674155D01*
X144215845Y-118797424D01*
X144360795Y-118894277D01*
X144521855Y-118960990D01*
X144692835Y-118995000D01*
X144867165Y-118995000D01*
X145038145Y-118960990D01*
X145199205Y-118894277D01*
X145344155Y-118797424D01*
X145467424Y-118674155D01*
X145564277Y-118529205D01*
X145630990Y-118368145D01*
X145665000Y-118197165D01*
X145665000Y-118022835D01*
X145630990Y-117851855D01*
X145564277Y-117690795D01*
X145467424Y-117545845D01*
X145344155Y-117422576D01*
X145199205Y-117325723D01*
X145038145Y-117259010D01*
X144867165Y-117225000D01*
X144692835Y-117225000D01*
X144521855Y-117259010D01*
X144360795Y-117325723D01*
X144215845Y-117422576D01*
X144092576Y-117545845D01*
X143995723Y-117690795D01*
X143929010Y-117851855D01*
X143895000Y-118022835D01*
X143119368Y-118022835D01*
X143147130Y-117931316D01*
X143165000Y-117749879D01*
X143165000Y-116928550D01*
X143147130Y-116747113D01*
X143087336Y-116550000D01*
X146660001Y-116550000D01*
X146660001Y-124207699D01*
%TA.AperFunction,Conductor*%
D21*
G36*
X146660001Y-124207699D02*
G01*
X146093154Y-123640853D01*
X146050472Y-123500149D01*
X145968405Y-123346613D01*
X145857962Y-123212038D01*
X145831109Y-123190000D01*
X145857962Y-123167962D01*
X145968405Y-123033387D01*
X146050472Y-122879851D01*
X146101008Y-122713255D01*
X146118072Y-122540001D01*
X146118072Y-122014999D01*
X146101008Y-121841745D01*
X146050472Y-121675149D01*
X145968405Y-121521613D01*
X145857962Y-121387038D01*
X145723387Y-121276595D01*
X145569851Y-121194528D01*
X145403255Y-121143992D01*
X145230001Y-121126928D01*
X144329999Y-121126928D01*
X144156745Y-121143992D01*
X143990149Y-121194528D01*
X143836613Y-121276595D01*
X143702038Y-121387038D01*
X143591595Y-121521613D01*
X143509528Y-121675149D01*
X143458992Y-121841745D01*
X143441928Y-122014999D01*
X143441928Y-122540001D01*
X143447545Y-122597027D01*
X143416185Y-122558815D01*
X143319494Y-122479463D01*
X143209180Y-122420498D01*
X143089482Y-122384188D01*
X142965000Y-122371928D01*
X142525750Y-122375000D01*
X142367000Y-122533750D01*
X142367000Y-123383000D01*
X142387000Y-123383000D01*
X142387000Y-123575010D01*
X140698072Y-123575010D01*
X140698072Y-123185000D01*
X140685812Y-123060518D01*
X140670488Y-123010000D01*
X140876928Y-123010000D01*
X140880000Y-123224250D01*
X141038750Y-123383000D01*
X142113000Y-123383000D01*
X142113000Y-122533750D01*
X141954250Y-122375000D01*
X141515000Y-122371928D01*
X141390518Y-122384188D01*
X141270820Y-122420498D01*
X141160506Y-122479463D01*
X141063815Y-122558815D01*
X140984463Y-122655506D01*
X140925498Y-122765820D01*
X140889188Y-122885518D01*
X140876928Y-123010000D01*
X140670488Y-123010000D01*
X140649502Y-122940820D01*
X140590537Y-122830506D01*
X140511185Y-122733815D01*
X140414494Y-122654463D01*
X140304180Y-122595498D01*
X140184482Y-122559188D01*
X140060000Y-122546928D01*
X139641729Y-122546928D01*
X139443802Y-122349001D01*
X139420000Y-122319998D01*
X139304275Y-122225025D01*
X139172246Y-122154453D01*
X139028985Y-122110996D01*
X138917332Y-122099999D01*
X138917321Y-122099999D01*
X138879999Y-122096323D01*
X138842677Y-122099999D01*
X135639473Y-122099999D01*
X135655000Y-122021939D01*
X135655000Y-121959802D01*
X135765586Y-121849216D01*
X136967677Y-121849216D01*
X137004999Y-121852892D01*
X137042321Y-121849216D01*
X137042332Y-121849216D01*
X137153985Y-121838219D01*
X137297246Y-121794762D01*
X137429275Y-121724190D01*
X137545000Y-121629217D01*
X137568803Y-121600213D01*
X137640998Y-121528018D01*
X137670001Y-121504216D01*
X137764974Y-121388491D01*
X137784326Y-121352287D01*
X137980000Y-121352287D01*
X138104482Y-121340027D01*
X138105000Y-121339870D01*
X138105518Y-121340027D01*
X138230000Y-121352287D01*
X138630000Y-121352287D01*
X138754482Y-121340027D01*
X138755000Y-121339870D01*
X138755518Y-121340027D01*
X138880000Y-121352287D01*
X139280000Y-121352287D01*
X139404482Y-121340027D01*
X139407120Y-121339227D01*
X139498250Y-121349215D01*
X139566218Y-121281247D01*
X139634494Y-121244752D01*
X139731185Y-121165400D01*
X139803000Y-121077893D01*
X139803000Y-121190465D01*
X139961750Y-121349215D01*
X140064474Y-121337956D01*
X140183576Y-121299736D01*
X140284610Y-121243636D01*
X140285799Y-121244431D01*
X140533303Y-121346951D01*
X140796052Y-121399215D01*
X141063948Y-121399215D01*
X141326697Y-121346951D01*
X141574201Y-121244431D01*
X141796949Y-121095596D01*
X141986381Y-120906164D01*
X142135216Y-120683416D01*
X142237736Y-120435912D01*
X142290000Y-120173163D01*
X142290000Y-119905267D01*
X142237736Y-119642518D01*
X142135216Y-119395014D01*
X142090000Y-119327343D01*
X142090000Y-118914431D01*
X142172102Y-118906345D01*
X142404901Y-118835726D01*
X142619449Y-118721048D01*
X142807502Y-118566717D01*
X142961833Y-118378664D01*
X143076511Y-118164116D01*
X143119368Y-118022835D01*
X143895000Y-118022835D01*
X143895000Y-118197165D01*
X143929010Y-118368145D01*
X143995723Y-118529205D01*
X144092576Y-118674155D01*
X144215845Y-118797424D01*
X144360795Y-118894277D01*
X144521855Y-118960990D01*
X144692835Y-118995000D01*
X144867165Y-118995000D01*
X145038145Y-118960990D01*
X145199205Y-118894277D01*
X145344155Y-118797424D01*
X145467424Y-118674155D01*
X145564277Y-118529205D01*
X145630990Y-118368145D01*
X145665000Y-118197165D01*
X145665000Y-118022835D01*
X145630990Y-117851855D01*
X145564277Y-117690795D01*
X145467424Y-117545845D01*
X145344155Y-117422576D01*
X145199205Y-117325723D01*
X145038145Y-117259010D01*
X144867165Y-117225000D01*
X144692835Y-117225000D01*
X144521855Y-117259010D01*
X144360795Y-117325723D01*
X144215845Y-117422576D01*
X144092576Y-117545845D01*
X143995723Y-117690795D01*
X143929010Y-117851855D01*
X143895000Y-118022835D01*
X143119368Y-118022835D01*
X143147130Y-117931316D01*
X143165000Y-117749879D01*
X143165000Y-116928550D01*
X143147130Y-116747113D01*
X143087336Y-116550000D01*
X146660001Y-116550000D01*
X146660001Y-124207699D01*
G37*
%TD.AperFunction*%
%TD*%
M02*
