%TF.GenerationSoftware,KiCad,Pcbnew,(5.1.10)-1*%
%TF.CreationDate,2021-10-28T23:59:16+02:00*%
%TF.ProjectId,Battery Charger Li-Po,42617474-6572-4792-9043-686172676572,rev?*%
%TF.SameCoordinates,Original*%
%TF.FileFunction,Copper,L2,Bot*%
%TF.FilePolarity,Positive*%
%FSLAX46Y46*%
G04 Gerber Fmt 4.6, Leading zero omitted, Abs format (unit mm)*
G04 Created by KiCad (PCBNEW (5.1.10)-1) date 2021-10-28 23:59:16*
%MOMM*%
%LPD*%
G01*
G04 APERTURE LIST*
%TA.AperFunction,ComponentPad*%
%ADD10O,1.700000X2.000000*%
%TD*%
%TA.AperFunction,ComponentPad*%
%ADD11O,1.200000X1.900000*%
%TD*%
%TA.AperFunction,ComponentPad*%
%ADD12C,1.450000*%
%TD*%
%TA.AperFunction,ViaPad*%
%ADD13C,0.800000*%
%TD*%
%TA.AperFunction,Conductor*%
%ADD14C,0.254000*%
%TD*%
%TA.AperFunction,Conductor*%
%ADD15C,0.100000*%
%TD*%
G04 APERTURE END LIST*
D10*
%TO.P,J2,2*%
%TO.N,GND*%
X139660000Y-133350000D03*
%TO.P,J2,1*%
%TO.N,VCC*%
%TA.AperFunction,ComponentPad*%
G36*
G01*
X136310000Y-134100000D02*
X136310000Y-132600000D01*
G75*
G02*
X136560000Y-132350000I250000J0D01*
G01*
X137760000Y-132350000D01*
G75*
G02*
X138010000Y-132600000I0J-250000D01*
G01*
X138010000Y-134100000D01*
G75*
G02*
X137760000Y-134350000I-250000J0D01*
G01*
X136560000Y-134350000D01*
G75*
G02*
X136310000Y-134100000I0J250000D01*
G01*
G37*
%TD.AperFunction*%
%TD*%
D11*
%TO.P,J1,6*%
%TO.N,Net-(J1-Pad6)*%
X134930000Y-117339215D03*
X141930000Y-117339215D03*
D12*
X135930000Y-120039215D03*
X140930000Y-120039215D03*
%TD*%
D13*
%TO.N,GND*%
X134620000Y-121920000D03*
X140970000Y-125730000D03*
X140970000Y-128270000D03*
%TD*%
D14*
%TO.N,GND*%
X133712870Y-116747113D02*
X133695000Y-116928550D01*
X133695000Y-117749879D01*
X133712870Y-117931316D01*
X133783489Y-118164115D01*
X133898167Y-118378663D01*
X134052498Y-118566717D01*
X134240551Y-118721048D01*
X134455099Y-118835726D01*
X134687898Y-118906345D01*
X134930000Y-118930190D01*
X135172101Y-118906345D01*
X135182035Y-118903331D01*
X135063051Y-118982834D01*
X134873619Y-119172266D01*
X134724784Y-119395014D01*
X134622264Y-119642518D01*
X134570000Y-119905267D01*
X134570000Y-120173163D01*
X134622264Y-120435912D01*
X134724784Y-120683416D01*
X134873619Y-120906164D01*
X135063051Y-121095596D01*
X135285799Y-121244431D01*
X135533303Y-121346951D01*
X135796052Y-121399215D01*
X136063948Y-121399215D01*
X136326697Y-121346951D01*
X136574201Y-121244431D01*
X136796949Y-121095596D01*
X136986381Y-120906164D01*
X137135216Y-120683416D01*
X137237736Y-120435912D01*
X137290000Y-120173163D01*
X137290000Y-119905267D01*
X137237736Y-119642518D01*
X137135216Y-119395014D01*
X136986381Y-119172266D01*
X136796949Y-118982834D01*
X136574201Y-118833999D01*
X136326697Y-118731479D01*
X136063948Y-118679215D01*
X135796052Y-118679215D01*
X135630231Y-118712199D01*
X135807502Y-118566717D01*
X135961833Y-118378664D01*
X136076511Y-118164116D01*
X136147130Y-117931317D01*
X136165000Y-117749880D01*
X136165000Y-116928551D01*
X136147130Y-116747114D01*
X136087336Y-116550000D01*
X140772664Y-116550000D01*
X140712870Y-116747114D01*
X140695000Y-116928551D01*
X140695000Y-117749880D01*
X140712870Y-117931317D01*
X140783489Y-118164116D01*
X140898168Y-118378664D01*
X141052499Y-118566717D01*
X141229769Y-118712199D01*
X141063948Y-118679215D01*
X140796052Y-118679215D01*
X140533303Y-118731479D01*
X140285799Y-118833999D01*
X140063051Y-118982834D01*
X139873619Y-119172266D01*
X139724784Y-119395014D01*
X139622264Y-119642518D01*
X139570000Y-119905267D01*
X139570000Y-120173163D01*
X139622264Y-120435912D01*
X139724784Y-120683416D01*
X139873619Y-120906164D01*
X140063051Y-121095596D01*
X140285799Y-121244431D01*
X140533303Y-121346951D01*
X140796052Y-121399215D01*
X141063948Y-121399215D01*
X141326697Y-121346951D01*
X141574201Y-121244431D01*
X141796949Y-121095596D01*
X141986381Y-120906164D01*
X142135216Y-120683416D01*
X142237736Y-120435912D01*
X142290000Y-120173163D01*
X142290000Y-119905267D01*
X142237736Y-119642518D01*
X142135216Y-119395014D01*
X141986381Y-119172266D01*
X141796949Y-118982834D01*
X141677965Y-118903331D01*
X141687899Y-118906345D01*
X141930000Y-118930190D01*
X142172102Y-118906345D01*
X142404901Y-118835726D01*
X142619449Y-118721048D01*
X142807502Y-118566717D01*
X142961833Y-118378664D01*
X143076511Y-118164116D01*
X143147130Y-117931316D01*
X143165000Y-117749879D01*
X143165000Y-116928550D01*
X143147130Y-116747113D01*
X143087336Y-116550000D01*
X146660001Y-116550000D01*
X146660000Y-136500000D01*
X132740000Y-136500000D01*
X132740000Y-132600000D01*
X135671928Y-132600000D01*
X135671928Y-134100000D01*
X135688992Y-134273254D01*
X135739528Y-134439850D01*
X135821595Y-134593386D01*
X135932038Y-134727962D01*
X136066614Y-134838405D01*
X136220150Y-134920472D01*
X136386746Y-134971008D01*
X136560000Y-134988072D01*
X137760000Y-134988072D01*
X137933254Y-134971008D01*
X138099850Y-134920472D01*
X138253386Y-134838405D01*
X138387962Y-134727962D01*
X138498405Y-134593386D01*
X138552914Y-134491407D01*
X138553198Y-134491795D01*
X138767954Y-134688664D01*
X139016991Y-134839854D01*
X139290739Y-134939554D01*
X139303110Y-134941476D01*
X139533000Y-134820155D01*
X139533000Y-133477000D01*
X139787000Y-133477000D01*
X139787000Y-134820155D01*
X140016890Y-134941476D01*
X140029261Y-134939554D01*
X140303009Y-134839854D01*
X140552046Y-134688664D01*
X140766802Y-134491795D01*
X140939025Y-134256812D01*
X141062096Y-133992745D01*
X141131285Y-133709742D01*
X140987232Y-133477000D01*
X139787000Y-133477000D01*
X139533000Y-133477000D01*
X139513000Y-133477000D01*
X139513000Y-133223000D01*
X139533000Y-133223000D01*
X139533000Y-131879845D01*
X139787000Y-131879845D01*
X139787000Y-133223000D01*
X140987232Y-133223000D01*
X141131285Y-132990258D01*
X141062096Y-132707255D01*
X140939025Y-132443188D01*
X140766802Y-132208205D01*
X140552046Y-132011336D01*
X140303009Y-131860146D01*
X140029261Y-131760446D01*
X140016890Y-131758524D01*
X139787000Y-131879845D01*
X139533000Y-131879845D01*
X139303110Y-131758524D01*
X139290739Y-131760446D01*
X139016991Y-131860146D01*
X138767954Y-132011336D01*
X138553198Y-132208205D01*
X138552914Y-132208593D01*
X138498405Y-132106614D01*
X138387962Y-131972038D01*
X138253386Y-131861595D01*
X138099850Y-131779528D01*
X137933254Y-131728992D01*
X137760000Y-131711928D01*
X136560000Y-131711928D01*
X136386746Y-131728992D01*
X136220150Y-131779528D01*
X136066614Y-131861595D01*
X135932038Y-131972038D01*
X135821595Y-132106614D01*
X135739528Y-132260150D01*
X135688992Y-132426746D01*
X135671928Y-132600000D01*
X132740000Y-132600000D01*
X132740000Y-116550000D01*
X133772664Y-116550000D01*
X133712870Y-116747113D01*
%TA.AperFunction,Conductor*%
D15*
G36*
X133712870Y-116747113D02*
G01*
X133695000Y-116928550D01*
X133695000Y-117749879D01*
X133712870Y-117931316D01*
X133783489Y-118164115D01*
X133898167Y-118378663D01*
X134052498Y-118566717D01*
X134240551Y-118721048D01*
X134455099Y-118835726D01*
X134687898Y-118906345D01*
X134930000Y-118930190D01*
X135172101Y-118906345D01*
X135182035Y-118903331D01*
X135063051Y-118982834D01*
X134873619Y-119172266D01*
X134724784Y-119395014D01*
X134622264Y-119642518D01*
X134570000Y-119905267D01*
X134570000Y-120173163D01*
X134622264Y-120435912D01*
X134724784Y-120683416D01*
X134873619Y-120906164D01*
X135063051Y-121095596D01*
X135285799Y-121244431D01*
X135533303Y-121346951D01*
X135796052Y-121399215D01*
X136063948Y-121399215D01*
X136326697Y-121346951D01*
X136574201Y-121244431D01*
X136796949Y-121095596D01*
X136986381Y-120906164D01*
X137135216Y-120683416D01*
X137237736Y-120435912D01*
X137290000Y-120173163D01*
X137290000Y-119905267D01*
X137237736Y-119642518D01*
X137135216Y-119395014D01*
X136986381Y-119172266D01*
X136796949Y-118982834D01*
X136574201Y-118833999D01*
X136326697Y-118731479D01*
X136063948Y-118679215D01*
X135796052Y-118679215D01*
X135630231Y-118712199D01*
X135807502Y-118566717D01*
X135961833Y-118378664D01*
X136076511Y-118164116D01*
X136147130Y-117931317D01*
X136165000Y-117749880D01*
X136165000Y-116928551D01*
X136147130Y-116747114D01*
X136087336Y-116550000D01*
X140772664Y-116550000D01*
X140712870Y-116747114D01*
X140695000Y-116928551D01*
X140695000Y-117749880D01*
X140712870Y-117931317D01*
X140783489Y-118164116D01*
X140898168Y-118378664D01*
X141052499Y-118566717D01*
X141229769Y-118712199D01*
X141063948Y-118679215D01*
X140796052Y-118679215D01*
X140533303Y-118731479D01*
X140285799Y-118833999D01*
X140063051Y-118982834D01*
X139873619Y-119172266D01*
X139724784Y-119395014D01*
X139622264Y-119642518D01*
X139570000Y-119905267D01*
X139570000Y-120173163D01*
X139622264Y-120435912D01*
X139724784Y-120683416D01*
X139873619Y-120906164D01*
X140063051Y-121095596D01*
X140285799Y-121244431D01*
X140533303Y-121346951D01*
X140796052Y-121399215D01*
X141063948Y-121399215D01*
X141326697Y-121346951D01*
X141574201Y-121244431D01*
X141796949Y-121095596D01*
X141986381Y-120906164D01*
X142135216Y-120683416D01*
X142237736Y-120435912D01*
X142290000Y-120173163D01*
X142290000Y-119905267D01*
X142237736Y-119642518D01*
X142135216Y-119395014D01*
X141986381Y-119172266D01*
X141796949Y-118982834D01*
X141677965Y-118903331D01*
X141687899Y-118906345D01*
X141930000Y-118930190D01*
X142172102Y-118906345D01*
X142404901Y-118835726D01*
X142619449Y-118721048D01*
X142807502Y-118566717D01*
X142961833Y-118378664D01*
X143076511Y-118164116D01*
X143147130Y-117931316D01*
X143165000Y-117749879D01*
X143165000Y-116928550D01*
X143147130Y-116747113D01*
X143087336Y-116550000D01*
X146660001Y-116550000D01*
X146660000Y-136500000D01*
X132740000Y-136500000D01*
X132740000Y-132600000D01*
X135671928Y-132600000D01*
X135671928Y-134100000D01*
X135688992Y-134273254D01*
X135739528Y-134439850D01*
X135821595Y-134593386D01*
X135932038Y-134727962D01*
X136066614Y-134838405D01*
X136220150Y-134920472D01*
X136386746Y-134971008D01*
X136560000Y-134988072D01*
X137760000Y-134988072D01*
X137933254Y-134971008D01*
X138099850Y-134920472D01*
X138253386Y-134838405D01*
X138387962Y-134727962D01*
X138498405Y-134593386D01*
X138552914Y-134491407D01*
X138553198Y-134491795D01*
X138767954Y-134688664D01*
X139016991Y-134839854D01*
X139290739Y-134939554D01*
X139303110Y-134941476D01*
X139533000Y-134820155D01*
X139533000Y-133477000D01*
X139787000Y-133477000D01*
X139787000Y-134820155D01*
X140016890Y-134941476D01*
X140029261Y-134939554D01*
X140303009Y-134839854D01*
X140552046Y-134688664D01*
X140766802Y-134491795D01*
X140939025Y-134256812D01*
X141062096Y-133992745D01*
X141131285Y-133709742D01*
X140987232Y-133477000D01*
X139787000Y-133477000D01*
X139533000Y-133477000D01*
X139513000Y-133477000D01*
X139513000Y-133223000D01*
X139533000Y-133223000D01*
X139533000Y-131879845D01*
X139787000Y-131879845D01*
X139787000Y-133223000D01*
X140987232Y-133223000D01*
X141131285Y-132990258D01*
X141062096Y-132707255D01*
X140939025Y-132443188D01*
X140766802Y-132208205D01*
X140552046Y-132011336D01*
X140303009Y-131860146D01*
X140029261Y-131760446D01*
X140016890Y-131758524D01*
X139787000Y-131879845D01*
X139533000Y-131879845D01*
X139303110Y-131758524D01*
X139290739Y-131760446D01*
X139016991Y-131860146D01*
X138767954Y-132011336D01*
X138553198Y-132208205D01*
X138552914Y-132208593D01*
X138498405Y-132106614D01*
X138387962Y-131972038D01*
X138253386Y-131861595D01*
X138099850Y-131779528D01*
X137933254Y-131728992D01*
X137760000Y-131711928D01*
X136560000Y-131711928D01*
X136386746Y-131728992D01*
X136220150Y-131779528D01*
X136066614Y-131861595D01*
X135932038Y-131972038D01*
X135821595Y-132106614D01*
X135739528Y-132260150D01*
X135688992Y-132426746D01*
X135671928Y-132600000D01*
X132740000Y-132600000D01*
X132740000Y-116550000D01*
X133772664Y-116550000D01*
X133712870Y-116747113D01*
G37*
%TD.AperFunction*%
%TD*%
M02*
